<!DOCTYPE svg PUBLIC "-//W3C//DTD SVG 1.1//EN" "http://www.w3.org/Graphics/SVG/1.1/DTD/svg11.dtd">
<!-- Uploaded to: SVG Repo, www.svgrepo.com, Transformed by: SVG Repo Mixer Tools -->
<svg width="155px" height="155px" viewBox="0 0 25.00 25.00" fill="none" xmlns="http://www.w3.org/2000/svg" transform="matrix(-1, 0, 0, 1, 0, 0)" stroke="#ffffff">
<g id="SVGRepo_bgCarrier" stroke-width="0"/>
<g id="SVGRepo_tracerCarrier" stroke-linecap="round" stroke-linejoin="round" stroke="#fdfcfc" stroke-width="0.35000000000000003"> <path d="M15.328 4.75C14.9138 4.75 14.578 5.08579 14.578 5.5C14.578 5.91421 14.9138 6.25 15.328 6.25V4.75ZM19.5 6.25C19.9142 6.25 20.25 5.91421 20.25 5.5C20.25 5.08579 19.9142 4.75 19.5 4.75V6.25ZM20.0303 6.03033C20.3232 5.73744 20.3232 5.26256 20.0303 4.96967C19.7374 4.67678 19.2626 4.67678 18.9697 4.96967L20.0303 6.03033ZM4.96967 18.9697C4.67678 19.2626 4.67678 19.7374 4.96967 20.0303C5.26256 20.3232 5.73744 20.3232 6.03033 20.0303L4.96967 18.9697ZM20.25 5.5C20.25 5.08579 19.9142 4.75 19.5 4.75C19.0858 4.75 18.75 5.08579 18.75 5.5H20.25ZM18.75 9.672C18.75 10.0862 19.0858 10.422 19.5 10.422C19.9142 10.422 20.25 10.0862 20.25 9.672H18.75ZM15.328 18.75C14.9138 18.75 14.578 19.0858 14.578 19.5C14.578 19.9142 14.9138 20.25 15.328 20.25V18.75ZM19.5 20.25C19.9142 20.25 20.25 19.9142 20.25 19.5C20.25 19.0858 19.9142 18.75 19.5 18.75V20.25ZM18.9697 20.0303C19.2626 20.3232 19.7374 20.3232 20.0303 20.0303C20.3232 19.7374 20.3232 19.2626 20.0303 18.9697L18.9697 20.0303ZM6.03033 4.96967C5.73744 4.67678 5.26256 4.67678 4.96967 4.96967C4.67678 5.26256 4.67678 5.73744 4.96967 6.03033L6.03033 4.96967ZM18.75 19.5C18.75 19.9142 19.0858 20.25 19.5 20.25C19.9142 20.25 20.25 19.9142 20.25 19.5H18.75ZM20.25 15.328C20.25 14.9138 19.9142 14.578 19.5 14.578C19.0858 14.578 18.75 14.9138 18.75 15.328H20.25ZM15.328 6.25H19.5V4.75H15.328V6.25ZM18.9697 4.96967L4.96967 18.9697L6.03033 20.0303L20.0303 6.03033L18.9697 4.96967ZM18.75 5.5V9.672H20.25V5.5H18.75ZM15.328 20.25H19.5V18.75H15.328V20.25ZM20.0303 18.9697L6.03033 4.96967L4.96967 6.03033L18.9697 20.0303L20.0303 18.9697ZM20.25 19.5V15.328H18.75V19.5H20.25Z" fill="#ffffff"/> </g>
<g id="SVGRepo_iconCarrier"> <path d="M15.328 4.75C14.9138 4.75 14.578 5.08579 14.578 5.5C14.578 5.91421 14.9138 6.25 15.328 6.25V4.75ZM19.5 6.25C19.9142 6.25 20.25 5.91421 20.25 5.5C20.25 5.08579 19.9142 4.75 19.5 4.75V6.25ZM20.0303 6.03033C20.3232 5.73744 20.3232 5.26256 20.0303 4.96967C19.7374 4.67678 19.2626 4.67678 18.9697 4.96967L20.0303 6.03033ZM4.96967 18.9697C4.67678 19.2626 4.67678 19.7374 4.96967 20.0303C5.26256 20.3232 5.73744 20.3232 6.03033 20.0303L4.96967 18.9697ZM20.25 5.5C20.25 5.08579 19.9142 4.75 19.5 4.75C19.0858 4.75 18.75 5.08579 18.75 5.5H20.25ZM18.75 9.672C18.75 10.0862 19.0858 10.422 19.5 10.422C19.9142 10.422 20.25 10.0862 20.25 9.672H18.75ZM15.328 18.75C14.9138 18.75 14.578 19.0858 14.578 19.5C14.578 19.9142 14.9138 20.25 15.328 20.25V18.75ZM19.5 20.25C19.9142 20.25 20.25 19.9142 20.25 19.5C20.25 19.0858 19.9142 18.75 19.5 18.75V20.25ZM18.9697 20.0303C19.2626 20.3232 19.7374 20.3232 20.0303 20.0303C20.3232 19.7374 20.3232 19.2626 20.0303 18.9697L18.9697 20.0303ZM6.03033 4.96967C5.73744 4.67678 5.26256 4.67678 4.96967 4.96967C4.67678 5.26256 4.67678 5.73744 4.96967 6.03033L6.03033 4.96967ZM18.75 19.5C18.75 19.9142 19.0858 20.25 19.5 20.25C19.9142 20.25 20.25 19.9142 20.25 19.5H18.75ZM20.25 15.328C20.25 14.9138 19.9142 14.578 19.5 14.578C19.0858 14.578 18.75 14.9138 18.75 15.328H20.25ZM15.328 6.25H19.5V4.75H15.328V6.25ZM18.9697 4.96967L4.96967 18.9697L6.03033 20.0303L20.0303 6.03033L18.9697 4.96967ZM18.75 5.5V9.672H20.25V5.5H18.75ZM15.328 20.25H19.5V18.75H15.328V20.25ZM20.0303 18.9697L6.03033 4.96967L4.96967 6.03033L18.9697 20.0303L20.0303 18.9697ZM20.25 19.5V15.328H18.75V19.5H20.25Z" fill="#ffffff"/> </g>
</svg>