<!DOCTYPE svg PUBLIC "-//W3C//DTD SVG 1.1//EN" "http://www.w3.org/Graphics/SVG/1.1/DTD/svg11.dtd">
<!-- Uploaded to: SVG Repo, www.svgrepo.com, Transformed by: SVG Repo Mixer Tools -->
<svg fill="#080707" width="155px" height="155px" viewBox="-3.4 -3.4 40.80 40.80" xmlns="http://www.w3.org/2000/svg" stroke="#080707" transform="rotate(0)">
<g id="SVGRepo_bgCarrier" stroke-width="0"/>
<g id="SVGRepo_tracerCarrier" stroke-linecap="round" stroke-linejoin="round" stroke="#000" stroke-width="1.7">
<path d="m12 10.286 6.857 6.857-6.857 6.858-12-12 12-12 3 3-1.714 1.714-1.286-1.286-8.571 8.571 8.571 8.571 3.446-3.446-5.161-5.125zm10.286-10.286 12 12-12 12-3-3 1.714-1.714 1.286 1.286 8.571-8.571-8.571-8.571-3.446 3.446 5.161 5.125-1.714 1.714-6.857-6.857z"/>
</g>
<g id="SVGRepo_iconCarrier">
<path d="m12 10.286 6.857 6.857-6.857 6.858-12-12 12-12 3 3-1.714 1.714-1.286-1.286-8.571 8.571 8.571 8.571 3.446-3.446-5.161-5.125zm10.286-10.286 12 12-12 12-3-3 1.714-1.714 1.286 1.286 8.571-8.571-8.571-8.571-3.446 3.446 5.161 5.125-1.714 1.714-6.857-6.857z"/>
</g>
</svg>